# xmcd
#
# Track frame offsets: 
#        150
#        12580
#        22097
#        34915
#        48202
#        59020
#        70065
#        82577
#        93322
#        105130
#        112445
#        125970
#        139735
#        148352
#        160592
#        173022
#        186187
#        196560
#        208810
#        221502
#
# Disc length: 3084 seconds
#
# Revision: 2
# Processed by: cddbd v1.5.2PL0 Copyright (c) Steve Scherf et al.
# Submitted via: ExactAudioCopy v0.95b3
#
DISCID=220c0a14
DTITLE=Hank Williams - Turn Back The Years: The Essential Collection (
DTITLE=Disc 1) Honky Tonkin'
DYEAR=2005
DGENRE=Country
TTITLE0=Honky Tonkin'
TTITLE1=Rockin' Chair Money
TTITLE2=I'm A Long Gone Daddy
TTITLE3=I've Been Down That Road Before (as Luke The Drifter)
TTITLE4=Moanin' The Blues
TTITLE5=(I Heard That) Lonesome Whistle
TTITLE6=Rootie Tootie
TTITLE7=You Better Keep It On Your Mind
TTITLE8=Settin' The Woods On Fire
TTITLE9=Wearin' Out Your Walkin' Shoes
TTITLE10=Too Many Parties And Too Many Pals (as Luke The Drifter)
TTITLE11=Ramblin' Man (as Luke The Drifter)
TTITLE12=Tennessee Border
TTITLE13=Howlin' At The Moon
TTITLE14=Move It On Over
TTITLE15=Hey, Good Lookin'
TTITLE16=Leave Me Alone With The Blues
TTITLE17=Lost Highway
TTITLE18=There's A Tear In My Beer
TTITLE19=Honky Tonk Blues
EXTD=
EXTT0=
EXTT1=
EXTT2=
EXTT3=
EXTT4=
EXTT5=
EXTT6=
EXTT7=
EXTT8=
EXTT9=
EXTT10=
EXTT11=
EXTT12=
EXTT13=
EXTT14=
EXTT15=
EXTT16=
EXTT17=
EXTT18=
EXTT19=
PLAYORDER=
